# xmcd
#
# Track frame offsets: 
#        150
#        20127
#        36942
#        50307
#        68325
#        89370
#        105590
#        125320
#        144202
#        165182
#        187350
#
# Disc length: 2790 seconds
#
# Revision: 6
# Processed by: cddbd v1.5.2PL0 Copyright (c) Steve Scherf et al.
# Submitted via: ExactAudioCopyFreeDBPlugin 1.0
#
DISCID=8a0ae40b
DTITLE=ERIC CLAPTON - NO REASON TO CRY (REMASTERED)
DYEAR=1976
DGENRE=Blues Rock
TTITLE0=Beautiful Thing (1996 Remaster)
TTITLE1=Carnival (1996 Remaster)
TTITLE2=Sign Language (1996 Remaster)
TTITLE3=County Jail Blues (1996 Remaster)
TTITLE4=All Our Past Times (1996 Remaster)
TTITLE5=Hello Old Friend (1996 Remaster)
TTITLE6=Double Trouble (1996 Remaster)
TTITLE7=Innocent Times (1996 Remaster)
TTITLE8=Hungry (1996 Remaster)
TTITLE9=Black Summer Rain (1996 Remaster)
TTITLE10=Last Night (1996 Remaster)
EXTD=
EXTT0=
EXTT1=
EXTT2=
EXTT3=
EXTT4=
EXTT5=
EXTT6=
EXTT7=
EXTT8=
EXTT9=
EXTT10=
PLAYORDER=
